<svg id="Warstwa_1" data-name="Warstwa 1" xmlns="http://www.w3.org/2000/svg" viewBox="0 0 64.21 62.68"><defs><style>.cls-1{fill:#fff;}</style></defs><path class="cls-1" d="M14.29,31.87H70.53a3.75,3.75,0,0,0,0-7.5H14.29a3.75,3.75,0,1,0,0,7.5Z" transform="translate(-10.54 -24.37)"/><path class="cls-1" d="M14.76,60.22H71a3.75,3.75,0,0,0,0-7.5H14.76a3.75,3.75,0,0,0,0,7.5Z" transform="translate(-10.54 -24.37)"/><path class="cls-1" d="M14.53,87H70.76a3.75,3.75,0,0,0,0-7.5H14.53a3.75,3.75,0,0,0,0,7.5Z" transform="translate(-10.54 -24.37)"/></svg>